# xmcd CD database file
#
# Track frame offsets:
#	150
#	21725
#	63544
#	90207
#	112381
#	135179
#	151679
#	166996
#	187912
#
# Disc length: 2912 seconds
#
# Revision: 0
# Processed by: cddbd v1.5.2PL0 Copyright (c) Steve Scherf et al.
# Submitted via: CDex 1.70beta3
#
DISCID=6c0b5e09
DTITLE=Flying Earth - Good Evening, Mr. Space
DYEAR=2018
DGENRE=Jazz
TTITLE0=Moving Body
TTITLE1=Dark Blue
TTITLE2=Shadow of Sky
TTITLE3=Meet There
TTITLE4=Clear Fire
TTITLE5=How do you feel?
TTITLE6=Mystery Zone
TTITLE7=Smile and Passion
TTITLE8=Bye bye
EXTD=YEAR: 2018
EXTT0=
EXTT1=
EXTT2=
EXTT3=
EXTT4=
EXTT5=
EXTT6=
EXTT7=
EXTT8=
PLAYORDER=
